<svg width="71" height="96" viewBox="0 0 71 96" fill="none" xmlns="http://www.w3.org/2000/svg">
<path d="M13.9375 26.2812V62.375C13.9375 64.0625 14.2812 65.2917 14.9688 66.0625C15.6562 66.8333 16.9583 67.3958 18.875 67.75L18.625 68.5C16.3125 68.1875 14.5521 68.0208 13.3438 68C12.1354 67.9792 10.5938 68.1458 8.71875 68.5L8.5 68.1875C8.9375 67.5833 9.15625 66.4792 9.15625 64.875V32.0312C9.15625 29.0938 8.80208 27.1146 8.09375 26.0938C7.38542 25.0729 5.90625 24.6458 3.65625 24.8125L3.53125 24.2188C6.96875 23.1979 10.2292 22.6875 13.3125 22.6875C13.7292 23.8333 13.9375 25.0312 13.9375 26.2812Z" fill="black"/>
<path d="M34.456 43.872C37.6133 43.872 40.0027 46.2187 41.624 50.912L41.88 52.256C41.88 56.8213 39.7467 61.4933 35.48 66.272C33.7733 67.8507 32.0453 68.64 30.296 68.64C27.736 68.64 25.9227 67.168 24.856 64.224C24.472 62.8587 24.28 61.664 24.28 60.64V59.872C24.28 53.1307 26.7333 48.0107 31.64 44.512C32.4933 44.0853 33.432 43.872 34.456 43.872ZM28.056 60.512C28.056 63.4133 28.8027 64.864 30.296 64.864C33.4107 64.864 35.992 60.8747 38.04 52.896V51.68C37.3147 49.0347 35.9707 47.712 34.008 47.712C33.24 47.712 32.856 48.2453 32.856 49.312C32.856 50.0373 32.0027 50.6133 30.296 51.04C28.8027 53.5573 28.056 56.7147 28.056 60.512Z" fill="black"/>
<path d="M57.504 66C55.2427 66 54.112 65.3387 54.112 64.016C54.112 63.1627 54.3893 62.2453 54.944 61.264C55.5413 60.2827 56.2667 59.3013 57.12 58.32C57.9733 57.296 58.8267 56.2933 59.68 55.312C60.576 54.3307 61.3013 53.4347 61.856 52.624C62.4533 51.7707 62.752 51.0453 62.752 50.448C62.752 50.2347 62.6453 50.064 62.432 49.936C62.2613 49.7653 62.0053 49.68 61.664 49.68C61.152 49.68 60.4267 49.936 59.488 50.448C58.592 50.96 57.44 51.8347 56.032 53.072C54.6667 54.2667 53.0453 55.888 51.168 57.936C49.2907 59.9413 47.136 62.4587 44.704 65.488C44.32 65.4027 43.744 65.36 42.976 65.36C42.208 65.36 41.5467 65.4453 40.992 65.616C42.2293 63.824 43.4453 62.0747 44.64 60.368C45.8347 58.6613 46.9227 57.104 47.904 55.696C48.928 54.288 49.7387 53.136 50.336 52.24C50.9333 51.3013 51.232 50.7253 51.232 50.512C51.232 50.128 51.04 49.936 50.656 49.936C50.2293 49.936 49.696 50.2773 49.056 50.96C48.416 51.6 47.712 52.432 46.944 53.456C46.176 54.4373 45.3867 55.44 44.576 56.464L44 56.08C44.8533 55.0987 45.6853 54.0747 46.496 53.008C47.3067 51.9413 48.1387 51.024 48.992 50.256C49.8453 49.488 50.7413 49.104 51.68 49.104C52.1493 49.104 52.576 49.232 52.96 49.488C53.3867 49.7013 53.6 50.064 53.6 50.576C53.6 51.0453 53.408 51.6213 53.024 52.304C52.6827 52.944 52.2133 53.6907 51.616 54.544C51.0187 55.3547 50.336 56.272 49.568 57.296C48.8427 58.2773 48.0747 59.344 47.264 60.496L47.328 60.88C49.5893 58.4053 51.488 56.4 53.024 54.864C54.6027 53.328 55.904 52.1547 56.928 51.344C57.9947 50.4907 58.912 49.9147 59.68 49.616C60.4907 49.2747 61.2587 49.104 61.984 49.104C62.9653 49.104 63.6693 49.3173 64.096 49.744C64.5227 50.128 64.736 50.6613 64.736 51.344C64.736 52.368 64.4373 53.456 63.84 54.608C63.2427 55.7173 62.496 56.8267 61.6 57.936C60.7467 59.0027 59.872 60.0053 58.976 60.944C58.1227 61.84 57.3973 62.608 56.8 63.248C56.2027 63.888 55.904 64.3147 55.904 64.528C55.904 64.784 55.968 64.976 56.096 65.104C56.2667 65.232 56.672 65.296 57.312 65.296C58.8907 65.296 60.384 64.8053 61.792 63.824C63.2427 62.8427 64.6293 61.648 65.952 60.24C67.2747 58.7893 68.512 57.36 69.664 55.952L70.176 56.4C69.024 57.7653 67.7653 59.1947 66.4 60.688C65.0347 62.1813 63.6053 63.44 62.112 64.464C60.6187 65.488 59.0827 66 57.504 66Z" fill="black"/>
</svg>
